<?xml version="1.0" encoding="utf-8" ?><svg xmlns="http://www.w3.org/2000/svg" xmlns:xlink="http://www.w3.org/1999/xlink" width="512" height="512" viewBox="0 0 512 512"><path fill="#23364C" transform="scale(0.5 0.5)" d="M171.995 489.09C172.477 479.733 172.872 471.215 180.306 464.083C183.72 460.807 186.963 459.675 191.498 458.855C199.181 457.465 207.117 456.35 214.86 455.231C230.809 452.974 246.769 450.799 262.739 448.705L388.165 432.071L446.809 424.574C453.414 423.75 465.406 421.966 471.84 421.875C478.211 421.785 494.44 430.794 498.691 435.843C500.232 437.673 501.439 444.485 501.518 447.252C501.981 463.426 501.772 480.045 501.764 496.235L501.881 579.104C501.887 593.506 501.438 610.474 501.939 624.688C514.677 634.45 530.593 644.905 544 654.217L619.532 706.922C629.662 714.044 641.808 721.643 651.382 729.198C651.55 735.548 652.035 750.589 647.367 754.309C642.676 758.047 620.314 760.368 614.014 761.291L573.736 767.218L430.018 788.057C400.862 792.17 367.889 795.826 339.219 801.622L222.475 726.68C215.628 722.298 182.337 702.208 178.823 698.005L176.191 696.331C176.133 701.569 176.681 734.771 175.215 736.578C169.921 738.53 147.601 741.259 140.866 742.056C122.385 744.244 101.832 747.977 83.4809 749.468C72.7026 742.087 62.0736 734.505 51.1044 727.407C48.5161 725.733 45.9542 723.99 43.5389 722.071L43.4982 573.979C43.4973 538.951 42.7272 500.893 44.0045 466.204L99.4943 459.127C106.566 458.221 122.043 455.858 128.54 455.951C139.362 462.377 150.691 471.693 160.657 479.539C164.064 482.221 168.688 486.84 171.995 489.09Z"/><path fill="#FAFAFA" transform="scale(0.5 0.5)" d="M177.009 684.002C177.032 688.483 176.343 694.582 178.823 698.005L176.191 696.331C175.875 693.563 176.016 687.38 176 684.364L177.009 684.002Z"/><path fill="#424F6B" transform="scale(0.5 0.5)" d="M176 684.364C175.982 681.895 175.845 678.749 176.175 676.358L176.773 676.059L176.26 675.869L176.726 675.756L176.335 675.58L176.678 675.439L176.347 675.724L176.261 676.254L176.908 676.604C177.032 679.217 177.043 681.41 177.009 684.002L176 684.364Z"/><path fill="#FAFAFA" transform="scale(0.5 0.5)" d="M486.02 435.7C492.124 434.764 496.246 436.752 496.74 443.395C497.293 450.822 497.148 458.376 497.183 465.829L497.246 505.074L497.029 623.324C492.634 624.525 487.062 625.291 482.521 625.657L482.528 509.15C482.547 489.254 482.966 470.37 482.485 450.392C473.116 450.383 455.645 452.948 445.522 454.135L383.194 461.273C343.044 466.006 302.932 471.05 262.861 476.407L228.635 480.692C219.186 481.786 208.691 482.707 199.388 484.531C198.245 494.123 198.597 503.831 198.63 513.497L198.614 550.425L198.779 610.339C198.801 621.689 198.422 636.414 199.082 647.513C209.454 647.638 229.157 643.34 240.057 641.726C253.932 639.671 267.577 637.906 281.493 636.116L281.498 598.906C275.188 594.007 268.589 589.142 262.202 584.315C255.063 584.495 245.009 585.958 237.696 586.832C237.018 602.422 237.515 621.207 237.529 637.033C226.32 639.04 215.06 640.685 203.837 642.747C203.279 636.72 203.458 628.288 203.471 622.143L203.527 590.909L203.579 488.616C208.505 488.174 213.976 487.439 218.928 486.87C224.82 485.472 239.827 484.097 246.528 483.281L301.952 476.465C360.607 469.137 419.153 460.922 478.013 455.356L477.962 626.399C467.086 627.073 452.812 629.444 441.761 630.918L378.939 639.238L183.999 665.246L183.95 546.762C183.976 536.528 183.942 526.293 183.849 516.059C183.644 503.846 180.083 476.246 196.421 473.076C205.772 471.261 216.706 470.172 226.262 468.944L280.83 461.739C349.143 452.411 417.543 443.731 486.02 435.7Z"/><path fill="#23364C" transform="scale(0.5 0.5)" d="M354.878 489.702C355.522 489.553 358.975 489.412 359.796 489.364C366.279 494.262 375.364 500.18 380.452 506.023C380.866 518.133 380.862 529.241 380.768 541.345C374.371 541.791 366.373 542.937 359.882 543.683C351.753 544.666 343.613 545.56 335.464 546.364C334.412 530.964 335.204 508.126 335.285 492.199C341.415 491.186 348.639 490.465 354.878 489.702Z"/><path fill="#FAFAFA" transform="scale(0.5 0.5)" d="M369.033 506.299L375.386 505.759C376.304 515.849 376.01 526.707 375.932 536.904C366.04 537.967 356.141 538.971 346.236 539.916C344.276 540.027 342.031 540.29 340.05 540.47C339.868 530.133 339.969 519.373 339.941 509.008C348.107 507.859 360.574 507.118 369.033 506.299Z"/><path fill="#23364C" transform="scale(0.5 0.5)" d="M365.482 526.794C368.033 526.447 370.934 525.61 372.175 528.415L371.434 529.352C367.051 531.461 356.184 531.936 350.942 532.401C348.519 532.607 345.27 533.402 343.705 531.161L344.263 530.275C349.463 527.705 359.389 527.286 365.482 526.794Z"/><path fill="#23364C" transform="scale(0.5 0.5)" d="M370.686 515.744C371.922 515.997 371.36 515.713 372.226 516.948C371.879 519.696 368.245 519.96 365.857 520.221C359.134 520.958 352.156 521.381 345.406 521.549C344.927 521.444 344.175 521.004 343.692 520.761C343.169 516.617 367.216 515.981 370.686 515.744Z"/><path fill="#FAFAFA" transform="scale(0.5 0.5)" d="M351.332 495.2C352.848 494.97 356.649 494.836 358.35 494.723C361.996 497.164 363.04 498.273 366.107 501.376C361.883 501.818 357.657 502.237 353.429 502.633C349.433 503.123 342.336 504.693 340.061 500.312C340.642 495.654 347.723 495.565 351.332 495.2Z"/><path fill="#23364C" transform="scale(0.5 0.5)" d="M256.391 501.702C257.802 501.501 260.499 501.473 262.021 501.409C268.972 507.127 276.01 512.909 282.487 519.155C282.257 530.455 282.816 540.959 281.899 552.324C275.685 552.978 268.543 553.891 262.382 554.763C256.727 555.453 243.787 557.527 238.865 556.564C236.119 553.053 237.397 511.52 237.494 503.806C243.709 503.023 250.149 502.393 256.391 501.702Z"/><path fill="#FAFAFA" transform="scale(0.5 0.5)" d="M271.351 518.225C280.329 516.269 277.588 543.133 277.398 547.87C268.378 548.685 259.372 549.638 250.381 550.727L242.389 551.643C242.142 541.499 242.387 530.696 242.447 520.506C251.289 520.565 262.427 519.196 271.351 518.225Z"/><path fill="#23364C" transform="scale(0.5 0.5)" d="M265.616 538.703C268.059 538.452 271.789 537.69 273.648 539.173C273.865 540.712 274.068 540.049 273.303 541.269C268.514 543.316 259.83 543.608 254.396 544.059C252.229 544.357 248.057 544.679 245.938 544.398C245.106 543.257 245.244 543.892 245.327 542.509C248.14 539.447 261.048 539.095 265.616 538.703Z"/><path fill="#23364C" transform="scale(0.5 0.5)" d="M266.869 527.708C269.359 527.448 272.615 526.546 274.38 528.485L274.3 529.837C271.463 532.295 257.587 532.824 253.378 533.137C252.487 533.246 251.595 533.348 250.702 533.443C248.523 533.671 247.624 533.941 246.009 532.641L245.977 531.614C248.776 528.497 262.31 528.101 266.869 527.708Z"/><path fill="#FAFAFA" transform="scale(0.5 0.5)" d="M254.394 507.208L260.68 506.745L268.4 512.972C264.9 513.541 260.564 513.926 256.985 514.343C248.603 515.049 246.146 517.34 242.209 508.662C246.068 507.879 250.434 507.579 254.394 507.208Z"/><path fill="#23364C" transform="scale(0.5 0.5)" d="M353.682 572.295L360.719 571.717C366.547 574.116 375.729 581.62 381.076 585.77C380.898 597.361 380.985 609.194 380.967 620.805C374.496 622.139 365.755 622.909 359.009 623.655C354.052 624.352 341.003 626.783 336.95 625.155C334.381 621.065 335.839 581.392 335.992 574.175C341.879 573.461 347.776 572.835 353.682 572.295Z"/><path fill="#FAFAFA" transform="scale(0.5 0.5)" d="M372.305 587.709C374.599 587.548 373.749 587.177 375.196 588.231C377.382 592.723 376.192 610.606 376.009 616.715C365.568 618.094 355.104 619.285 344.621 620.287C343.18 620.581 342.239 620.615 341.127 619.883C339.815 615.671 340.482 595.985 340.543 590.514C350.262 590.499 362.442 588.847 372.305 587.709Z"/><path fill="#23364C" transform="scale(0.5 0.5)" d="M369.62 596.228C371.349 596.048 371.746 596.222 372.895 597.305L372.509 598.394C367.941 601.596 354.429 601.749 348.117 602.415L345.781 602.393C344.449 601.421 344.886 602.041 344.407 600.48L345.087 599.433C349.457 597.091 363.976 596.61 369.62 596.228Z"/><path fill="#23364C" transform="scale(0.5 0.5)" d="M367.158 606.694C369.715 606.4 370.651 606.05 372.676 607.624L372.685 608.377C369.125 611.664 356.139 612.172 350.88 612.585C348.811 612.874 347.275 613.242 345.211 612.877C344.225 611.837 344.422 612.452 344.432 611.061C347.267 607.904 362.456 607.176 367.158 606.694Z"/><path fill="#FAFAFA" transform="scale(0.5 0.5)" d="M346.838 577.655C358.115 576.941 360.015 575.863 368.686 583.335C365.795 583.424 363.486 583.638 360.62 583.931C355.366 584.29 344.126 587.443 340.936 582.764C340.883 580.556 340.634 581.547 341.61 579.649C343.238 578.317 344.773 578.16 346.838 577.655Z"/><path fill="#E27E4F" transform="scale(0.5 0.5)" d="M441.984 480.219C442.734 480.185 442.288 480.143 443.284 480.56C444.624 484.377 443.829 503.616 443.762 508.959C434.212 510.638 424.222 511.273 414.526 512.571C413.225 512.44 413.829 512.617 412.765 511.845C411.059 507.386 412.126 489.296 412.394 483.686C420.755 482.192 433.44 481.038 441.984 480.219Z"/><path fill="#E27E4F" transform="scale(0.5 0.5)" d="M441.413 557.712C442.53 557.562 441.969 557.485 443.081 558.049C444.293 562.026 443.674 581.079 443.605 586.336C434.3 587.045 423.699 588.887 414.387 590.322C413.274 589.968 413.668 590.175 412.807 589.341C411.495 584.241 411.998 567.441 412.034 561.302C421.809 559.964 431.603 558.767 441.413 557.712Z"/><path fill="#4A9F74" transform="scale(0.5 0.5)" d="M446.796 593.72C447.679 593.562 447.257 593.487 448.051 593.99C445.483 596.007 425.933 597.449 421.097 597.946L419.775 597.902L419.711 597.402C424.473 595.893 440.899 594.36 446.796 593.72Z"/><path fill="#4A9F74" transform="scale(0.5 0.5)" d="M449.103 530.732L449.435 530.932L449.253 531.432C442.856 533.454 425.737 535.079 418.489 535.606L418.194 535.524C420.309 533.962 445.411 531.195 449.103 530.732Z"/><path fill="#4A9F74" transform="scale(0.5 0.5)" d="M447.329 605.761L447.85 605.955C445.055 607.923 423.89 609.789 419.111 610.366L418.4 610.164C421.17 608.278 443.151 606.209 447.329 605.761Z"/><path fill="#4A9F74" transform="scale(0.5 0.5)" d="M443.834 515.698C445.152 515.59 447.109 515.241 448.178 515.706C443.304 517.588 431.213 518.521 425.381 519.146C422.541 519.564 420.703 519.74 417.858 519.915C427.357 517.183 433.994 516.751 443.834 515.698Z"/><path fill="#4A9F74" transform="scale(0.5 0.5)" d="M447.516 520.89L447.763 521.2C442.049 522.581 424.655 524.257 418.603 524.58L418.194 524.205C419.756 522.695 443.519 521.129 447.516 520.89Z"/><path fill="#4A9F74" transform="scale(0.5 0.5)" d="M443.441 599.72C444.636 599.542 444.378 599.602 445.618 599.747C444.058 600.976 424.01 603.214 420.444 603.719C419.901 603.735 418.901 603.667 418.33 603.642L418.238 603.172C422.553 601.682 437.935 600.3 443.441 599.72Z"/><path fill="#3A3B3A" transform="scale(0.5 0.5)" d="M439.765 526.706C441.231 526.447 440.842 526.508 442.365 526.626L442.023 527.095C438.451 528.158 425.397 529.42 421.275 529.765C420.127 529.928 419.941 529.821 418.759 529.718C420.24 528.623 437.057 527.006 439.765 526.706Z"/><path fill="#FAFAFA" transform="scale(0.5 0.5)" d="M497.077 628.238C501.439 629.096 637.083 724.926 646.752 732.845C634.148 735.275 619.795 737.004 606.938 738.863L535.849 748.892C471.742 757.762 407.691 767.029 343.699 776.693L335.95 771.54L180.776 671.163C210.044 665.539 244.374 662.372 274.17 658.366L416.175 639.153C443.715 635.449 469.523 632.407 497.077 628.238Z"/><path fill="#23364C" transform="scale(0.5 0.5)" d="M464.214 658.685C465.138 658.814 465.057 658.732 465.93 659.151C481.871 666.8 497.218 675.607 513.426 682.728C517.701 684.606 531.34 690.058 532.913 693.984L532.391 694.803C526.563 697.927 463.198 705.904 452.621 707.457L327.583 726.005C324.704 725.112 308.925 717.037 305.395 715.285C295.407 710.329 285.448 705.314 275.519 700.242C271.534 698.215 262.163 694.089 258.723 690.791C258.241 690.329 258.571 689.695 258.722 689C262.827 685.948 308.922 680.781 316.933 679.644C342.659 675.818 368.405 672.129 394.17 668.579C417.552 665.36 440.926 662.504 464.214 658.685Z"/><path fill="#8FBE89" transform="scale(0.5 0.5)" d="M500.694 685.311C508.813 684.07 515.52 688.732 522.789 692.517L333.118 720.349C325.916 721.258 319.074 716.281 312.66 712.705C375.453 704.325 437.664 693.17 500.694 685.311Z"/><path fill="#FAFAFA" transform="scale(0.5 0.5)" d="M316.802 684.695C317.616 684.538 320.883 684.364 321.891 684.286C325.306 686.625 329.018 689.739 332.293 692.354C327.168 693.484 318.978 694.434 313.626 695.168C304.541 696.414 294.256 697.989 285.179 698.628C281.378 698.735 272.579 693.346 268.758 691.292C284.863 689 300.632 686.578 316.802 684.695Z"/><path fill="#FAFAFA" transform="scale(0.5 0.5)" d="M375.582 676.237C379.855 676.41 384.631 681.841 387.687 684.851C373.335 687.304 355.015 689.138 340.277 691.06C334.837 689.792 332.27 686.837 328.301 683.075C333.08 682.057 340.923 681.154 345.947 680.424C355.813 678.937 365.691 677.542 375.582 676.237Z"/><path fill="#FAFAFA" transform="scale(0.5 0.5)" d="M426.708 669.217C428.909 668.991 435.753 676.034 437.672 677.836C423.813 678.957 408.931 681.346 395.111 683.329C392.296 683.023 386.173 677.276 383.756 675.174C395.198 672.819 414.862 670.533 426.708 669.217Z"/><path fill="#FAFAFA" transform="scale(0.5 0.5)" d="M387.297 689.686L391.777 689.27C394.088 690.99 396.005 692.819 398.125 694.757C384.038 697.711 367.935 699.61 353.616 701.421C348.643 701.977 346.41 698.784 342.759 695.65L387.297 689.686Z"/><path fill="#FAFAFA" transform="scale(0.5 0.5)" d="M459.3 664.694C467.09 663.575 473.039 668.305 479.749 672.35C471.639 672.803 461.13 674.279 453.047 675.597C449.749 676.04 446.717 676.322 443.401 676.604C440.62 673.839 436.578 670.582 433.525 667.98C441.723 666.513 450.949 665.643 459.3 664.694Z"/><path fill="#FAFAFA" transform="scale(0.5 0.5)" d="M330.396 697.315L335.995 696.738C339.611 699.226 341.048 700.365 344.316 703.339C332.326 703.963 317.483 707.763 304.902 709.202C300.658 707.077 295.584 704.856 291.23 702.837L330.396 697.315Z"/><path fill="#FAFAFA" transform="scale(0.5 0.5)" d="M440.857 682.255L441.681 682.213C444.228 683.642 445.935 685.647 448.006 687.733C434.183 689.353 419.422 691.612 405.661 693.763C401.956 693.438 400.625 691.13 398.126 688.305C409.46 685.815 429.007 683.288 440.857 682.255Z"/><path fill="#FAFAFA" transform="scale(0.5 0.5)" d="M485.379 676.217C488.192 675.465 495.033 679.301 497.827 680.697C487.164 682.894 472.464 684.331 461.387 685.58L454.998 686.693L448.632 681.205C457.61 679.251 475.728 677.423 485.379 676.217Z"/><path fill="#23364C" transform="scale(0.5 0.5)" d="M83.9025 633.789C102.935 632.341 122.381 629.629 141.372 627.591C151.665 626.487 162.635 624.858 172.916 624.378C172.907 629.933 172.782 635.487 172.538 641.036L172.54 677.047C172.531 683.355 172.695 694.85 171.65 700.913C171.356 711.463 171.506 722.37 171.521 732.949C167.195 733.723 162.996 734.282 158.64 734.843C133.729 738.047 108.97 741.845 84.0051 744.675C83.0804 731.402 83.7206 715.79 83.7814 702.276L83.9025 633.789Z"/><path fill="#8FBE89" transform="scale(0.5 0.5)" d="M83.9025 633.789C102.935 632.341 122.381 629.629 141.372 627.591C151.665 626.487 162.635 624.858 172.916 624.378C172.907 629.933 172.782 635.487 172.538 641.036L171.483 641.069C170.779 640.508 169.724 639.635 168.844 639.645C158.514 639.772 144.36 641.642 134.277 642.779L105.922 645.998C100.995 646.55 94.1078 647.066 89.4201 648.035C88.9281 668.913 88.9553 689.8 89.5017 710.676C114.883 708.37 146.055 704.919 170.956 700.364L171.65 700.913C171.356 711.463 171.506 722.37 171.521 732.949C167.195 733.723 162.996 734.282 158.64 734.843C133.729 738.047 108.97 741.845 84.0051 744.675C83.0804 731.402 83.7206 715.79 83.7814 702.276L83.9025 633.789Z"/><path fill="#95B69B" transform="scale(0.5 0.5)" d="M172.538 641.036L172.54 677.047C172.531 683.355 172.695 694.85 171.65 700.913L170.956 700.364C171.35 696.102 171.018 687.905 171.098 683.352C171.342 669.352 170.958 655.062 171.483 641.069L172.538 641.036Z"/><path fill="#FAFAFA" transform="scale(0.5 0.5)" d="M161.107 644.703C162.456 644.489 165.806 644.418 167.316 644.341L167.026 696.807C146.559 699.979 121.343 702.26 100.423 704.75L94.0734 705.474L94.058 652.296C114.674 649.175 139.924 647.093 161.107 644.703Z"/><path fill="#23364C" transform="scale(0.5 0.5)" d="M154.371 654.719C156.026 654.425 155.913 654.384 157.488 654.94C160.491 657.7 159.807 663.796 159.46 667.548C158.906 673.542 161.027 685.334 158.293 690.375C152.772 693.252 116.681 696.344 108.117 697.203C106.094 697.494 106.996 697.652 105.277 696.99C101.392 692.093 103.11 668.218 103.656 661.207C113.469 658.404 143.467 655.844 154.371 654.719Z"/><path fill="#F1CA64" transform="scale(0.5 0.5)" d="M150.029 660.209C151.645 660.008 152.342 659.782 153.89 660.322C155.707 663.832 154.823 682.755 154.707 687.397C141.088 688.628 127.506 690.459 113.879 691.585C111.991 691.809 109.957 691.918 108.049 692.059L108.034 664.636C122.024 663.083 136.022 661.607 150.029 660.209Z"/><path fill="#8FBE89" transform="scale(0.5 0.5)" d="M49.0839 473.331C54.6334 476.061 73.1278 489.979 78.9388 494.193L78.9873 740.893C69.5521 733.794 58.9502 727.367 49.0101 719.894C47.9787 684.857 48.5366 648.721 48.5395 613.553C48.4657 566.812 48.6472 520.071 49.0839 473.331Z"/><path fill="#FAFAFA" transform="scale(0.5 0.5)" d="M642.817 738.678C644.192 738.351 644.266 738.452 645.7 738.616C649.022 741.633 645.412 747.955 643.606 751.18C633.139 754.324 616.587 756.097 605.286 757.672L549.431 765.558L349.244 794.837L345.544 795.388L345.509 781.339L642.817 738.678Z"/><path fill="#8FBE89" transform="scale(0.5 0.5)" d="M93.4837 506.678C119.442 504.251 146.451 500.019 172.567 497.323C172.868 514.894 172.818 532.469 172.417 550.037L171.437 551.414C170.708 549.497 169.328 548.436 167.266 548.507C158.711 548.802 149.967 549.956 141.466 550.87C125.526 552.657 109.563 554.241 93.5818 555.619L93.4837 506.678Z"/><path fill="#FAFAFA" transform="scale(0.5 0.5)" d="M159.614 553.795C161.735 553.558 164.341 553.447 166.51 553.293C167.826 566.228 166.72 590.437 166.515 604.466C146.117 608.246 122.314 609.81 101.379 612.807L94.19 613.663C93.4711 597.321 93.9899 577.235 93.9676 560.609L159.614 553.795Z"/><path fill="#23364C" transform="scale(0.5 0.5)" d="M149.473 564.295C151.189 564.104 157.73 563.155 158.141 564.969C160.266 574.336 159.43 590.862 158.424 599.983C149.525 602.461 122.688 605.064 112.539 605.917C98.2626 608.262 104.206 595.363 103.031 585.666C102.498 581.271 103.153 573.958 103.92 569.595C113.622 567.031 138.609 565.261 149.473 564.295Z"/><path fill="#F1CA64" transform="scale(0.5 0.5)" d="M152.451 569.242C153.35 569.154 152.883 569.091 153.831 569.554C155.057 572.766 154.437 591.561 154.384 596.281C144.804 598.512 120.932 600.006 109.881 601.208C109.169 601.135 109.608 601.234 108.647 600.665C107.327 597.165 107.934 578.049 107.98 573.074C122.796 571.718 137.62 570.441 152.451 569.242Z"/><path fill="#FAFAFA" transform="scale(0.5 0.5)" d="M181.017 677.359C184.403 679.01 191.601 684.162 195.009 686.487C203.679 692.499 212.437 698.382 221.281 704.136L299.422 754.218C313.376 763.168 326.709 772.204 340.917 780.856C340.932 785.581 340.681 790.639 340.531 795.387C340.398 795.405 340.267 795.442 340.133 795.44C337.174 795.417 190.722 700.884 182.002 693.64C181.805 688.206 181.476 682.777 181.017 677.359Z"/><path fill="#FAFAFA" transform="scale(0.5 0.5)" d="M470.142 426.711C474.163 425.944 480.02 429.457 483.465 431.303C420.043 437.925 354.885 447.056 291.471 455.258L228.011 463.6C220.114 464.657 212.207 465.71 204.324 466.801C196.84 467.836 190.987 468.447 185.536 474.319C177.209 483.291 179.01 498.094 179.086 509.462L179.197 541.696L179.462 656.625C179.502 658.801 179.738 663.281 178.638 664.93C176.419 661.571 177.46 639.285 177.465 633.738L177.48 576.042L177.454 510.915C177.387 501.172 176.69 491.274 176.974 481.602C177.103 477.202 177.952 474.509 180.747 471.11C183.258 468.057 186.575 465.027 190.533 464.055C201.089 461.464 212.592 460.264 223.377 458.836L275.08 451.946C340.057 443.202 405.079 434.79 470.142 426.711Z"/><path fill="#8FBE89" transform="scale(0.5 0.5)" d="M123.782 461.216C130.086 460.51 149.356 476.869 155.242 481.316C148.113 481.815 137.694 483.563 130.312 484.526L84.6171 490.295C84.4053 490.336 84.1955 490.39 83.9817 490.419C80.5733 490.883 57.054 472.835 52.7364 469.784C59.8029 469.229 68.5716 467.843 75.7095 466.933C91.7142 464.868 107.739 462.962 123.782 461.216Z"/><path fill="#8FBE89" transform="scale(0.5 0.5)" d="M83.6465 497.751L89.6621 501.596C88.1945 518.649 88.9807 543.343 89.0377 560.947C89.0937 578.236 88.3715 601.579 89.7651 618.238C96.279 618.488 111.358 616.623 118.072 615.857C135.765 613.953 153.405 611.577 170.971 608.73C171.095 606.617 171.248 604.507 171.432 602.399C171.558 604.098 171.53 607.163 172.434 608.396C172.792 611.879 172.808 615.872 172.902 619.411C164.11 619.917 152.58 621.507 143.614 622.45C123.583 624.491 103.572 626.726 83.5839 629.155C83.1829 585.354 83.2037 541.551 83.6465 497.751Z"/><path fill="#FAFAFA" transform="scale(0.5 0.5)" d="M271.359 601.202C272.886 600.779 273.751 600.924 274.933 601.574C277.542 606.276 276.488 624.916 276.41 631.435C267.855 632.96 257.338 633.682 248.466 634.857L246.716 635.051C244.951 635.261 244.423 635.567 242.856 634.699C241.296 631.292 242.156 609.097 242.259 603.705C251.99 603.275 261.698 602.44 271.359 601.202Z"/><path fill="#23364C" transform="scale(0.5 0.5)" d="M270.472 610.222C272.026 610.06 272.177 610.415 273.209 611.333C273.28 612.044 273.51 612.462 272.986 612.736C267.976 615.362 253.637 616.314 248.377 616.649C246.653 616.685 246.248 616.381 245.592 614.945L246.137 614.135C251.125 611.407 264.344 610.742 270.472 610.222Z"/><path fill="#23364C" transform="scale(0.5 0.5)" d="M266.689 621.299C268.824 620.986 272.254 620.315 273.005 623.068C269.277 626.004 255.843 626.718 250.879 627.169C249.07 627.41 247.043 627.897 245.657 626.807L245.592 625.493C247.929 622.62 262.506 621.759 266.689 621.299Z"/><path fill="#FAFAFA" transform="scale(0.5 0.5)" d="M159.022 485.237C160.714 485.585 167.432 491.411 169.096 492.779C165.327 493.436 161.501 493.706 157.707 494.179C138.186 496.614 118.314 498.054 98.9084 501.268C96.4721 501.122 90.8781 496.636 88.6069 494.978C112.422 491.834 135.268 488.801 159.022 485.237Z"/><path fill="#FAFAFA" transform="scale(0.5 0.5)" d="M258.565 589.737C261.887 589.523 266.668 594.118 269.151 596.217C263.902 596.666 258.657 597.162 253.417 597.705C249.6 598.134 245.496 598.611 242.45 595.702C241.632 590.266 254.891 590.013 258.565 589.737Z"/><path fill="#95B69B" transform="scale(0.5 0.5)" d="M172.417 550.037C172.599 568.651 173.22 589.974 172.434 608.396C171.53 607.163 171.558 604.098 171.432 602.399C170.997 585.407 170.999 568.406 171.437 551.414L172.417 550.037Z"/><path fill="#23364C" transform="scale(0.5 0.5)" d="M214.834 35.7266C219.002 35.4422 224.001 35.9659 228.127 36.519C256.503 40.322 275.556 56.0544 292.334 78.2408C310.409 73.0337 328.436 72.0495 345.879 79.9219C362.962 87.7506 376.308 101.948 383.068 119.482C390.768 139.99 387.141 158.838 378.466 178.114C394.774 182.747 407.037 188.154 419.382 200.451C434.031 215.284 442.215 235.312 442.146 256.159C442.068 276.245 434.119 295.5 420.005 309.792C395.563 334.136 370.161 330.854 338.865 331.2C313.806 331.403 288.746 331.46 263.686 331.37L153.36 331.233C137.647 331.195 110.064 332.005 95.2805 330.512C88.5479 329.876 81.9419 328.273 75.6662 325.753C57.0462 318.367 42.2218 303.739 34.5877 285.219C26.4203 266.167 26.2211 244.637 34.0345 225.436C42.9109 203.898 57.621 191.45 78.6502 182.669C68.1653 158.196 75.4044 128.444 96.0807 111.733C108.493 101.702 119.61 99.1719 135.124 100.119C146.147 60.3583 174.394 38.9618 214.834 35.7266ZM138.319 104.676C121.899 103.723 109.744 105.721 96.705 117.354C85.8227 127.209 79.3228 141 78.647 155.666C78.2574 164.037 80.0909 173.539 83.1641 181.318C87.417 180.252 104.492 176.982 105.96 182.485C103.406 185.497 92.2413 184.302 88.1511 185.156C73.2693 188.266 60.268 196.007 50.4423 207.602C37.8691 222.711 31.7669 242.171 33.4616 261.754C35.0548 279.373 43.6662 297.795 57.3886 309.195C66.8282 317.19 78.1275 322.68 90.2459 325.162C99.9495 327.08 110.63 326.757 120.544 326.7L152.744 326.439L251.75 326.111L321.627 326.513C336.877 326.622 351.828 327.038 367.094 326.465C386.458 325.739 402.378 320.693 416.425 306.752C429.803 293.43 437.4 275.379 437.574 256.501C437.633 236.574 429.162 217.011 415.129 202.948C402.8 190.593 391.506 187.108 375.41 182.401C372.394 185.285 371.364 186.574 367.342 187.88L366.702 187.455C366.952 182.873 374.04 175.48 376.19 170.973C387.305 147.675 383.101 119.219 366 100.289C354.64 87.5218 338.639 79.8365 321.572 78.9497C310.768 78.4162 302.494 81.0434 292.206 83.2522C288.592 84.0281 281.028 70.9943 278.169 67.9211C262.972 51.5875 237.655 39.4007 215.085 40.7497C192.072 42.6139 172.303 49.7158 157.045 67.749C151.042 74.7975 146.353 82.8669 143.201 91.573C141.724 95.7306 140.285 100.833 138.319 104.676Z"/><path fill="#23364C" transform="scale(0.5 0.5)" d="M230.693 103.209C258.965 100.386 286.194 118.998 295.809 145.303C299.405 155.139 300.321 163.987 300.452 174.439C314.575 175.434 317.939 178.434 317.905 192.971C317.772 228.152 318.708 263.547 317.52 298.682C317.098 311.161 291.124 308.228 282.818 308.196L240.75 308.103L194.92 308.207C149.963 308.45 153.444 312.077 153.793 268.361L153.895 230.971C153.892 218.223 153.486 205.449 153.67 192.714C153.86 179.578 158.367 176.856 169.933 174.276C170.03 136.31 192.027 107.136 230.693 103.209ZM194.182 174.499L242.611 174.528C253.023 174.548 266.125 174.244 276.29 174.794C276.075 168.317 275.988 162.624 274.244 156.311C268.927 137.066 252.29 125.677 232.685 126.409C231.464 126.456 230.243 126.515 229.023 126.584C203.131 132.358 195.33 149.569 194.182 174.499Z"/><path fill="#F1CA64" transform="scale(0.5 0.5)" d="M167.07 179.647C175.501 179.256 185.248 179.53 193.8 179.545L237.07 179.516L278.102 179.476C285.821 179.476 303.661 178.666 310.448 181.37C313.155 184.305 313.499 188.794 313.535 192.645C313.638 204.025 313.522 215.417 313.536 226.798L313.594 270.507C313.603 278.434 313.707 286.377 313.503 294.299C313.343 300.532 311.563 302.335 305.609 303.436L208.078 303.417C198.002 303.429 172.489 304.6 164.162 302.867C162.399 302.5 159.812 301.574 159.055 299.745C157.96 297.101 157.99 202.179 158.473 192.782C158.623 189.853 158.853 186.64 160.088 183.946C161.254 181.403 164.646 180.521 167.07 179.647Z"/><path fill="#23364C" transform="scale(0.5 0.5)" d="M234.89 204.177C257.815 205.819 262.506 228.435 249.377 244.907C249.579 252.119 252.374 271.691 249.51 277.224C246.936 279.001 240.544 278.375 237.125 278.297C232.843 278.399 225.09 279.115 221.526 276.998C218.69 272.091 221.336 251.066 221.908 244.82C207.579 230.376 213.79 207.265 234.89 204.177Z"/><path fill="#FAFAFA" transform="scale(0.5 0.5)" d="M233.527 209.036C239.499 208.874 244.906 211.086 248.567 215.909C251.517 219.835 252.801 224.765 252.139 229.632C251.319 235.439 248.578 238.706 244.143 242.065C244.816 252.425 245.699 262.884 246.502 273.245L238.54 273.3L224.477 273.396C225.054 263.186 226.351 252.552 227.153 242.261C223.057 239.667 220.554 237.063 219.172 232.215C217.863 227.501 218.484 222.46 220.898 218.206C223.98 212.742 227.89 210.701 233.527 209.036Z"/><path fill="#FAFAFA" transform="scale(0.5 0.5)" d="M227.251 108.635C228.566 108.442 232.362 108.328 233.748 108.292C249.587 107.775 264.971 113.633 276.454 124.554C290.869 138.326 295.09 155.271 295.544 174.575L281.367 174.767C280.152 146.934 272.299 130.094 243.825 122.101C230.403 118.891 214.305 123.683 204.466 133.248C192.541 144.842 189.762 158.621 189.314 174.592L174.91 174.421C175.142 140.085 192.777 114.972 227.251 108.635Z"/><path fill="#23364C" transform="scale(0.5 0.5)" d="M737.913 776.796C739.035 776.912 740.489 776.955 741.19 777.988C747.126 786.743 751.257 794.776 758.159 802.989C767.986 814.682 784.889 819.957 799.722 819.122C822.817 817.823 824.817 818.11 829.01 842.055C831.831 857.194 832.673 869.247 830.871 885.106C826.989 920.873 809.066 953.634 781.039 976.192C772.395 983.033 756.231 993.127 745.204 995.794C743.599 996.182 741.038 995.882 739.342 995.688C681.756 976.58 640.806 923.974 644.809 862.389C645.538 851.169 646.472 826.362 656.627 818.335C658.241 817.059 669.795 818.201 672.453 817.963C695.689 818.449 716.068 807.874 728.823 788.422C731.19 784.812 734.705 779.773 737.913 776.796Z"/><path fill="#8FBE89" transform="scale(0.5 0.5)" d="M738.686 782.253C740.546 783.92 746.177 794.751 747.751 797.367C750.109 801.205 752.92 804.744 756.123 807.909C775.015 826.553 795.012 823.567 818.299 823.505C820.827 827.834 822.644 831.67 823.682 836.597C835.941 894.785 813.417 956.676 759.086 984.894C753.596 987.745 746.238 992.6 739.871 991.248C732.85 988.792 724.447 984.693 717.903 981.102C686.648 963.67 664.607 939.405 654.073 904.182C647.693 882.849 647.29 847.705 655.788 825.626C657.386 821.474 674.278 822.595 678.812 822.354C682.155 822.157 685.479 821.709 688.756 821.014C714.756 815.557 725.067 803.258 738.686 782.253Z"/><path fill="#23364C" transform="scale(0.5 0.5)" d="M737.027 806.781C742.559 807.938 754.822 823.664 761.115 827.375C767.413 831.089 773.571 833.71 780.802 835.418C789.964 837.582 799.292 835.723 808.901 836.594L809.897 836.689C811.403 839.382 812.535 842.268 813.26 845.266C817.126 860.654 814.405 890.228 809.965 905.501C807.454 914.09 803.836 922.316 799.201 929.971C788.377 947.95 762.887 971.995 742.236 977.037C733.064 974.733 722.869 968.913 714.829 963.947C688.767 947.849 671.751 924.084 665.024 894.08C661.484 878.291 660.759 848.909 669.9 834.802C675.292 834.016 682.825 833.896 688.444 833.255C713.584 830.389 720.494 823.464 737.027 806.781Z"/><path fill="#FAFAFA" transform="scale(0.5 0.5)" d="M737.896 812.308C741.093 814.257 746.526 821.183 749.711 824.038C768.827 841.175 783.219 841.27 807.067 840.492C813.689 863.911 810.071 897.6 799.371 919.39C779.721 920.84 759.169 921.312 739.389 922.126C721.718 923.645 699.53 923.584 681.577 924.028C680.789 922.598 680.027 921.153 679.292 919.694C666.315 893.721 663.468 866.033 672.54 838.428C702.24 839.247 717.537 833.837 737.896 812.308Z"/><path fill="#E27E4F" transform="scale(0.5 0.5)" d="M776.232 860.75C780.724 860.444 786.678 860.341 791.097 860.522C791.42 863.393 791.32 866.095 791.297 868.98L704.196 871.648C699.189 871.96 694.172 872.072 689.156 871.982C688.854 869.27 688.886 866.827 688.865 864.108C718.119 863.662 747.025 862.05 776.232 860.75Z"/><path fill="#23364C" transform="scale(0.5 0.5)" d="M786.289 887.226C789.144 887.05 789.795 886.889 791.781 889.006C792.106 891.878 787.827 892.126 785.542 892.234C775.859 892.695 766.154 892.936 756.462 893.313C736.259 894.018 716.064 894.952 695.882 896.113C692.905 896.54 690.804 896.911 688.354 894.724L688.456 893.734C689.564 892.647 690.723 891.866 692.287 891.707C700.532 890.867 709.608 890.646 717.897 890.198C740.679 888.882 763.479 887.891 786.289 887.226Z"/><path fill="#23364C" transform="scale(0.5 0.5)" d="M779.811 875.793C783.505 875.47 788.874 874.336 791.149 877.977L790.696 878.974C789.317 879.858 787.538 880.433 785.894 880.503C756.991 881.721 727.728 882.161 698.877 884.051C695.449 884.112 691.928 884.998 688.642 882.926C688.267 880.705 691.048 879.662 692.853 879.565C721.761 878 750.92 877.553 779.811 875.793Z"/><path fill="#E27E4F" transform="scale(0.5 0.5)" d="M711.658 903.283L722.39 902.756C722.487 905.747 722.458 908.966 722.488 911.979C715.009 912.028 707.434 912.241 699.949 912.391L689.573 912.501C689.483 909.768 689.521 906.782 689.5 904.025L711.658 903.283Z"/><path fill="#FAFAFA" transform="scale(0.5 0.5)" d="M787.319 924.719L796.749 924.489C784.088 944.898 765.598 964.619 742.136 972.106C730.368 967.741 721.433 962.423 711.11 955.701C697.87 945.872 694.002 941.791 684.252 928.555C717.123 928.231 754.228 926.178 787.319 924.719Z"/><path fill="#23364C" transform="scale(0.5 0.5)" d="M630.956 131.682C633.892 131.372 638.764 131.281 641.702 131.465C654.711 132.165 666.876 138.125 675.402 147.975C688.467 141.761 701.096 141.761 713.809 149.112C725.155 155.735 733.431 166.565 736.84 179.252C765.915 181.767 792.005 207.606 772.171 236.31C775.99 237.591 779.723 238.821 782.711 241.597C786.313 245.078 790.288 251.537 790.102 256.748C789.063 285.738 763.996 284.185 743.64 284.069C735.302 283.983 726.963 284.003 718.625 284.131C694.879 284.51 670.968 284.006 647.186 284.203L614.392 284.296C602.553 284.39 581.966 285.683 571.461 280.376C551.981 270.535 544.911 244.212 555.484 225.287C562.08 213.48 568.506 210.236 581.151 206.052C580.768 204.452 580.428 202.842 580.133 201.224C576.295 179.748 585.828 156.288 603.026 143.104C611.937 136.273 620.054 133.473 630.956 131.682Z"/><path fill="#FAFAFA" transform="scale(0.5 0.5)" d="M630.851 136.61C649.731 134.602 661.61 140.685 674.582 153.864C676.756 152.802 678.942 151.726 681.179 150.787C698.224 143.627 718.081 153.161 727.165 168.264C730.288 173.456 731.266 178.556 732.243 184.484C749.007 184.427 764.774 190.36 772.271 206.765C776.243 215.457 775.069 227.004 767.806 233.55C765.773 235.383 760.117 238.544 759.195 240.814L759.756 241.944C762.624 243.659 767.625 240.99 770.288 241.258C786.096 243.032 790.561 261.287 779.613 272.075C770.942 280.619 761.609 279.497 750.389 279.552C743.972 279.584 737.367 279.479 730.892 279.43L632.882 279.441L603.226 279.549C596.822 279.575 590.682 279.686 584.263 279.209C558.716 277.348 547.822 244.936 561.088 225.092C567.822 215.02 576.052 212.467 587.362 210.201C586.742 207.761 586.173 205.308 585.656 202.845C578.927 169.943 598.46 143.193 630.851 136.61Z"/><path fill="#23364C" transform="scale(0.5 0.5)" d="M651.659 226.192C658.25 225.639 664.046 230.521 664.621 237.11C665.196 243.699 660.334 249.511 653.748 250.109C647.129 250.71 641.282 245.819 640.704 239.198C640.125 232.578 645.037 226.747 651.659 226.192Z"/><path fill="#8FBE89" transform="scale(0.5 0.5)" d="M651.784 231.247C654.305 230.931 656.8 232.003 658.307 234.049C659.813 236.095 660.095 238.796 659.045 241.11C657.994 243.423 655.775 244.988 653.243 245.2C649.438 245.52 646.076 242.737 645.679 238.939C645.281 235.141 647.995 231.722 651.784 231.247Z"/><path fill="#23364C" transform="scale(0.5 0.5)" d="M609.771 226.232C616.356 225.522 622.264 230.298 622.951 236.885C623.638 243.473 618.842 249.364 612.253 250.028C605.695 250.689 599.839 245.922 599.155 239.367C598.472 232.812 603.218 226.939 609.771 226.232Z"/><path fill="#8FBE89" transform="scale(0.5 0.5)" d="M608.51 231.736C610.838 230.852 613.461 231.288 615.378 232.877C617.295 234.465 618.21 236.962 617.775 239.413C617.339 241.865 615.619 243.893 613.272 244.723C609.699 245.987 605.775 244.141 604.47 240.583C603.166 237.025 604.967 233.08 608.51 231.736Z"/><path fill="#23364C" transform="scale(0.5 0.5)" d="M689.867 226.744C693.989 225.634 698.388 226.827 701.386 229.865C704.384 232.903 705.517 237.318 704.353 241.425C703.189 245.531 699.907 248.695 695.761 249.708C689.453 251.249 683.079 247.428 681.465 241.138C679.85 234.849 683.597 228.431 689.867 226.744Z"/><path fill="#8FBE89" transform="scale(0.5 0.5)" d="M690.272 231.773C693.879 230.36 697.945 232.159 699.326 235.778C700.706 239.397 698.87 243.447 695.238 244.794C691.653 246.123 687.667 244.316 686.304 240.744C684.942 237.171 686.713 233.168 690.272 231.773Z"/><path fill="#23364C" transform="scale(0.5 0.5)" d="M674.662 186.189C681.033 185.163 687.047 189.445 688.163 195.801C689.278 202.158 685.08 208.231 678.74 209.435C674.559 210.229 670.275 208.71 667.527 205.461C664.78 202.211 663.994 197.734 665.472 193.743C666.949 189.753 670.46 186.866 674.662 186.189Z"/><path fill="#8FBE89" transform="scale(0.5 0.5)" d="M674.876 191.236C677.222 190.681 679.685 191.433 681.32 193.204C682.955 194.974 683.509 197.489 682.77 199.783C682.031 202.077 680.112 203.795 677.751 204.277C674.177 205.007 670.678 202.734 669.893 199.172C669.108 195.609 671.327 192.076 674.876 191.236Z"/><path fill="#23364C" transform="scale(0.5 0.5)" d="M729.818 226.731C733.962 225.635 738.373 226.875 741.341 229.967C744.309 233.06 745.365 237.519 744.1 241.614C742.835 245.71 739.448 248.796 735.253 249.677C728.994 250.99 722.829 247.075 721.355 240.852C719.88 234.629 723.635 228.365 729.818 226.731Z"/><path fill="#8FBE89" transform="scale(0.5 0.5)" d="M730.336 231.796C732.669 230.903 735.303 231.342 737.22 232.945C739.137 234.547 740.036 237.061 739.571 239.515C739.106 241.97 737.349 243.981 734.979 244.771C731.424 245.956 727.573 244.083 726.311 240.554C725.048 237.026 726.836 233.135 730.336 231.796Z"/><path fill="#23364C" transform="scale(0.5 0.5)" d="M636.184 186.187C642.56 185.642 648.207 190.284 648.904 196.646C649.601 203.007 645.094 208.763 638.751 209.612C634.511 210.179 630.297 208.405 627.739 204.975C625.182 201.546 624.684 197 626.438 193.098C628.191 189.196 631.922 186.551 636.184 186.187Z"/><path fill="#8FBE89" transform="scale(0.5 0.5)" d="M634.701 190.919C643.929 190.756 647.372 197.747 640.168 204.432C629.395 205.561 628.698 198.02 634.701 190.919Z"/><path fill="#23364C" transform="scale(0.5 0.5)" d="M887.738 315.267C939.326 313.813 982.398 354.306 984.128 405.886C985.857 457.465 945.595 500.753 894.025 502.758C842.065 504.778 798.377 464.143 796.635 412.173C794.892 360.202 835.759 316.732 887.738 315.267Z"/><path fill="#FAFAFA" transform="scale(0.5 0.5)" d="M885.948 320.196C934.991 317.703 976.788 355.399 979.354 404.438C981.919 453.477 944.285 495.33 895.25 497.968C846.112 500.612 804.153 462.882 801.582 413.74C799.01 364.598 836.803 322.695 885.948 320.196Z"/><path fill="#23364C" transform="scale(0.5 0.5)" d="M883.316 332.205C925.906 328.245 963.617 359.619 967.473 402.218C971.329 444.817 939.864 482.452 897.256 486.204C854.793 489.944 817.315 458.61 813.473 416.157C809.63 373.704 840.873 336.15 883.316 332.205Z"/><path fill="#FAFAFA" transform="scale(0.5 0.5)" d="M884.863 335.192C898.278 332.46 919.426 340.787 930.241 348.31C946.17 359.537 956.961 376.655 960.221 395.869C963.747 416.343 959.504 435.994 947.592 453.036C936.028 426.966 913.074 438.431 906.744 430.086C906.486 426.697 909.942 424.585 912.292 422.13C918.639 415.503 920.4 408.289 922.045 399.558C923.326 398.776 924.83 397.718 925.887 396.67C928.556 393.983 929.948 390.283 929.713 386.504C929.365 381.03 926.501 378.003 922.658 374.743C922.193 373.296 921.707 371.856 921.202 370.423C917.38 359.582 912.768 353.674 902.378 348.732C889.424 344.194 870.28 347.601 861.973 359.231C860.698 361.015 859.686 362.973 858.967 365.044C857.674 368.778 857.336 372.973 856.416 376.887C855.257 381.814 852.189 387.379 853.227 392.567C853.925 396.058 856.084 398.924 858.965 400.951C861.936 412.283 863.686 418.723 872.699 426.484L871.228 432.813C854.696 435.925 841.093 433.761 831.709 450.558C825.595 439.578 821.459 429.181 819.945 416.618C817.539 397.247 822.883 377.709 834.813 362.259C847.434 346.215 864.844 337.635 884.863 335.192Z"/><path fill="#FAFAFA" transform="scale(0.5 0.5)" d="M906.87 436.544C910.856 437.733 915.374 438.485 919.492 439.273C919.562 451.796 919.72 465.462 919.149 477.904C900 485.505 885.688 485.078 866.282 478.585C863.3 477.157 860.173 475.779 857.157 474.402C857.045 462.854 857.065 451.305 857.218 439.758C862.267 439.068 866.644 438.221 871.614 437.226C872.668 438.373 873.796 439.598 875.007 440.58C879.949 444.611 886.336 446.419 892.657 445.577C899.171 444.658 903.033 441.505 906.87 436.544Z"/><path fill="#FAFAFA" transform="scale(0.5 0.5)" d="M870.716 373.699C873.525 375.613 875.196 376.721 878.152 378.25C881.353 379.906 889.34 382.385 891.654 384.587C891.828 386.134 891.917 388.579 893.08 389.623C895.285 391.605 901.132 392.047 903.096 389.774C902.763 387.863 902.017 387.685 900.27 386.364L900.489 386.756L900.429 386.26C904.533 385.726 914.323 389.599 918.128 391.283C917.555 401.725 915.891 408.914 910.168 417.566C906.374 421.854 902.46 424.876 896.918 426.576C890.8 428.498 884.158 427.783 878.59 424.6C866.445 417.776 861.718 402.345 864.218 389.235C865.386 383.115 867.622 379.013 870.716 373.699Z"/><path fill="#23364C" transform="scale(0.5 0.5)" d="M897.637 410.813C898.683 411.098 898.338 411.028 899.248 411.86C899.004 416.8 890.537 416.235 887.204 415.603C885.826 414.708 885.145 414.403 884.904 412.832C886.833 410.992 894.351 411.08 897.637 410.813Z"/><path fill="#23364C" transform="scale(0.5 0.5)" d="M907.249 391.809C909.286 391.671 911.079 393.141 911.342 395.165C911.606 397.189 910.25 399.069 908.246 399.458C906.835 399.731 905.389 399.199 904.492 398.075C903.595 396.952 903.395 395.424 903.974 394.108C904.553 392.792 905.815 391.907 907.249 391.809Z"/><path fill="#23364C" transform="scale(0.5 0.5)" d="M875.235 392.77C877.026 391.777 879.28 392.368 880.354 394.11C881.428 395.853 880.942 398.132 879.251 399.285C878.085 400.08 876.577 400.17 875.325 399.519C874.073 398.868 873.281 397.582 873.262 396.171C873.243 394.76 874.001 393.454 875.235 392.77Z"/><path fill="#F1CA64" transform="scale(0.5 0.5)" d="M860.796 380.156C861.736 372.163 863.685 361.702 870.833 357.123C891.888 343.637 912.764 352.587 918.048 376.4C916.467 377.47 915.382 377.968 914.501 379.652C914.444 383.097 917.937 384.172 920.363 386.497C908.318 382.366 896.458 380.195 884.521 376.228C879.96 374.712 874.401 370.203 870.101 367.841C865.654 371.67 864.656 373.909 862.467 379.556L860.796 380.156Z"/><path fill="#23364C" transform="scale(0.5 0.5)" d="M894.721 355.601C902.147 357.225 913.78 366.575 911.51 375.18C907.06 372.831 905.122 367.808 901.67 364.459C900.15 362.984 896.207 361.417 894.638 359.65C893.765 358.667 894.436 357.067 894.721 355.601Z"/><path fill="#DE6C63" transform="scale(0.5 0.5)" d="M924.1 439.34C937.738 443.04 941.724 445.782 942.762 460.369C940.323 462.943 937.847 465.069 935.193 467.412C931.639 470.234 927.797 472.766 924.045 475.327C923.978 463.331 923.997 451.335 924.1 439.34Z"/><path fill="#DE6C63" transform="scale(0.5 0.5)" d="M850.496 440.989C851.123 440.876 850.691 440.919 851.792 441.115C853.455 444.328 852.846 467.804 852.784 472.258C849.925 470.058 847.147 467.754 844.456 465.35C840.749 462.172 838.508 459.405 835.549 455.568C838.326 445.904 841.691 444.311 850.496 440.989Z"/><path fill="#FAFAFA" transform="scale(0.5 0.5)" d="M875.891 429.048C882.089 430.863 882.285 431.487 889.126 432.093C894.012 432.527 900.814 429.82 902.984 430.97C903.571 433.168 902.052 435.283 900.922 437.075C896.848 439.74 892.05 441.081 887.184 440.914C879.069 440.618 875.597 436.893 875.891 429.048Z"/><path fill="#FAFAFA" transform="scale(0.5 0.5)" d="M860.796 380.156L862.467 379.556C860.751 384.537 860.677 387.851 859.201 392.687C858.888 393.714 858.707 393.509 857.602 393.936L858.316 394.031L857.489 393.53C856.88 388.422 858.679 384.507 860.796 380.156Z"/><path fill="#8FBE89" transform="scale(0.5 0.5)" d="M922.67 381.142C926.84 383.344 924.373 389.212 923.109 392.696L922.847 392.774L922.277 392.442C921.895 389.164 921.152 383.972 922.67 381.142Z"/><path fill="#23364C" transform="scale(0.5 0.5)" d="M895.204 595.619C902.748 595.442 911.284 595.921 918.974 596.039C919.522 600.784 919.454 606.11 919.516 610.927C924.781 612.059 927.218 612.797 932.098 614.987C935.393 610.639 937.527 608.099 941.177 604.088C947.684 607.957 957.831 615.323 963.22 620.406C961.689 623.765 958.202 629.33 956.235 632.922C967.848 647.005 958.73 645.895 978.154 640.135C981.536 648.279 985.146 660.391 986.728 668.899C981.98 670.57 978.133 671.837 973.238 673.19C972.959 677.682 973.056 683.891 972.999 688.512C977.238 689.754 981.394 691.259 985.445 693.018C983.995 702.06 981.113 713.047 978.071 721.763C974.361 720.215 968.669 718.452 964.74 717.099C962.205 721.016 959.837 724.632 957.121 728.44C960.196 732.417 962.595 735.815 965.099 740.154C957.34 745.746 950.245 750.756 942.259 756.075C939.235 753.001 936.332 749.445 933.724 746.015C929.197 747.46 924.659 748.875 920.113 750.261C920.097 754.845 920.962 759.766 918.714 763.377C914.494 763.975 896.412 764.706 892.838 762.965C890.635 759.915 890.765 754.226 890.508 750.295C886.428 749.135 882.206 747.69 878.155 746.376C875.908 749.836 873.602 753.258 871.238 756.64C864.32 753.468 853.239 746.061 847.032 741.559C848.182 737.624 850.503 732.73 852.267 729.061C849.674 725.503 847.39 721.77 845.045 718.047C840.229 719.101 837.222 720.166 831.965 721.065C828.723 714.732 824.326 700.546 822.398 693.475C826.682 691.501 830.878 690.165 834.987 687.7C835.24 683.482 835.228 678.72 835.313 674.457L822.175 668.951C824.37 659.872 827.769 650.213 830.596 641.195C835.178 641.803 839.621 643.187 844.076 644.437C846.382 640.653 849.109 637.352 852.089 634.093C849.604 629.834 846.803 625.313 844.844 620.823C852.931 613.49 856.938 610.557 865.953 604.726C869.137 607.421 872.944 611.763 875.831 614.949C880.877 612.767 884.605 611.96 889.98 610.759C890.093 604.132 887.357 597.431 895.204 595.619ZM906.752 731.555C934.777 730.293 956.514 706.623 955.39 678.592C954.265 650.562 930.702 628.709 902.667 629.696C874.436 630.689 852.397 654.452 853.529 682.678C854.661 710.904 878.532 732.825 906.752 731.555Z"/><path fill="#FAFAFA" transform="scale(0.5 0.5)" d="M894.547 600.691C900.862 600.382 908.068 600.687 914.374 600.958C914.496 605.447 915.126 610.767 915.548 615.297C922.47 615.68 927.451 618.035 933.752 620.645C936.387 617.107 938.993 613.548 941.567 609.966C947.315 613.473 952.097 617.196 957.293 621.379C955.251 625.375 952.681 629.468 950.357 633.337C955.858 639.218 958.211 643.264 962.212 650.077C966.645 648.902 970.767 647.391 975.083 645.87C977.526 652.594 979.461 659.059 981.471 665.914C977.163 667.06 972.705 668.669 968.464 670.11C968.555 676.831 968.711 684.761 968.119 691.377L980.411 696.452C978.781 703.013 976.953 709.524 974.93 715.975C970.818 714.368 966.657 712.891 962.453 711.546C958.525 718.427 956.576 721.438 951.421 727.405C953.81 731.276 956.532 735.306 959.022 739.143C953.568 742.643 948.355 746.095 943.341 750.216C940.319 746.759 937.788 743.218 935.076 739.528C927.657 742.93 923.741 744.201 916.024 746.343L915.965 759.007C909.048 759.366 902.409 759.237 895.497 759.029L895.533 746.337C889.468 745.045 882.172 742.787 876.181 741.039L870.038 750.673C864.203 747.04 858.418 743.328 852.683 739.538C854.415 736.066 856.784 732.044 858.693 728.603C853.668 722.91 850.766 718.376 846.711 712.042C842.787 713.408 838.845 714.724 834.887 715.991C832.277 709.739 829.938 702.689 827.958 696.214C832.333 694.618 836.322 692.98 840.61 691.194C839.7 684.382 839.943 678.662 840.237 671.861C836.568 670 831.481 668.081 827.586 666.487L833.993 646.143C837.785 647.657 842.151 649.144 846.025 650.564C850.694 644.095 852.466 640.268 858.253 633.851C855.613 630.251 852.721 625.843 850.6 621.947C855.85 617.813 860.459 614.928 865.6 610.262C868.727 613.66 871.635 617.345 874.551 620.934C882.872 617.323 885.765 616.408 894.485 614.708L894.547 600.691ZM906.752 731.555C934.777 730.293 956.514 706.623 955.39 678.592C954.265 650.562 930.702 628.709 902.667 629.696C874.436 630.689 852.397 654.452 853.529 682.678C854.661 710.904 878.532 732.825 906.752 731.555Z"/><path fill="#23364C" transform="scale(0.5 0.5)" d="M902.667 629.696C930.702 628.709 954.265 650.562 955.39 678.592C956.514 706.623 934.777 730.293 906.752 731.555C878.532 732.825 854.661 710.904 853.529 682.678C852.397 654.452 874.436 630.689 902.667 629.696ZM899.916 683.082C907.532 682.902 909.694 683.308 916.872 686.218C929.742 694.874 927.282 707.095 927.334 720.816C943.276 712.879 951.845 691.737 949.456 674.405C943.798 633.36 892.622 618.116 867.728 653.19C860.189 663.972 857.281 677.323 859.651 690.264C862.043 703.526 869.57 712.937 880.413 720.463C879.892 701.67 878.002 687.818 899.916 683.082ZM911.974 679.888C908.481 681.748 904.465 682.386 900.567 681.701C892.032 680.2 885.83 672.751 885.902 664.086C885.973 655.42 892.296 648.074 900.855 646.714C909.414 645.354 917.702 650.378 920.456 658.595C923.211 666.812 919.624 675.816 911.974 679.888Z"/><path fill="#DE6C63" transform="scale(0.5 0.5)" d="M903.982 687.693C925.949 688.892 922.693 707.298 922.476 723.686C915.576 726.089 911.149 726.964 903.955 727.526C896.473 727.327 892.45 725.943 885.469 723.432C883.619 705.531 881.779 689.787 903.982 687.693Z"/><path fill="#23364C" transform="scale(0.5 0.5)" d="M900.567 681.701C892.032 680.2 885.83 672.751 885.902 664.086C885.973 655.42 892.296 648.074 900.855 646.714C909.414 645.354 917.702 650.378 920.456 658.595C923.211 666.812 919.624 675.816 911.974 679.888C908.481 681.748 904.465 682.386 900.567 681.701Z"/><path fill="#F1CA64" transform="scale(0.5 0.5)" d="M900.155 651.803C907.011 649.916 914.092 653.976 915.926 660.847C917.76 667.718 913.645 674.767 906.76 676.547C899.95 678.309 892.995 674.248 891.181 667.452C889.367 660.657 893.373 653.67 900.155 651.803Z"/><path fill="#7F7D7F" fill-opacity="0.011764706" transform="scale(0.5 0.5)" d="M911.974 679.888C911.535 680.838 911.651 680.938 910.842 681.587C911.67 682.265 911.187 682 912.554 681.993C913.673 680.594 913.872 680.494 915.542 679.833L916.212 679.98L915.033 682.853L915.367 683.362C915.994 684.334 916.624 685.132 916.872 686.218C909.694 683.308 907.532 682.902 899.916 683.082L900.567 681.701C904.465 682.386 908.481 681.748 911.974 679.888Z"/><path fill="#23364C" transform="scale(0.5 0.5)" d="M712.24 470.695C713.306 470.683 714.372 470.701 715.438 470.75C723.518 471.163 730.815 474.392 736.243 480.452C741.318 486.142 743.888 493.636 743.372 501.242C742.729 511.202 738.406 517.433 731.226 523.807C741.51 550.28 751.003 577.172 760.995 603.763C762.127 606.775 765.478 615.423 764.51 618.24C761.448 621.241 754.262 623.33 750.055 624.249C746.691 617.389 743.115 605.8 740.363 598.434C731.853 575.659 724.351 552.457 716.144 529.554C708.231 528.836 702.69 528.023 696.162 523.04C689.719 518.147 685.545 510.843 684.599 502.808C682.664 485.127 694.799 472.103 712.24 470.695Z"/><path fill="#FAFAFA" transform="scale(0.5 0.5)" d="M711.07 474.822C724.884 473.076 737.492 482.877 739.207 496.694C740.923 510.512 731.096 523.098 717.275 524.785C703.495 526.466 690.955 516.675 689.244 502.899C687.533 489.122 697.298 476.562 711.07 474.822Z"/><path fill="#23364C" transform="scale(0.5 0.5)" d="M712.939 480.808C723.171 480.218 731.984 487.945 732.736 498.166C733.489 508.387 725.903 517.322 715.695 518.236C708.946 518.841 702.395 515.761 698.556 510.178C694.717 504.595 694.185 497.375 697.165 491.29C700.145 485.205 706.174 481.198 712.939 480.808Z"/><path fill="#FAFAFA" transform="scale(0.5 0.5)" d="M712.261 485.257C720.142 484.175 727.412 489.675 728.513 497.553C729.614 505.431 724.131 512.714 716.255 513.834C708.354 514.957 701.042 509.451 699.937 501.547C698.832 493.643 704.354 486.344 712.261 485.257Z"/><path fill="#FAFAFA" transform="scale(0.5 0.5)" d="M726.161 526.504L727.2 526.622C729.266 528.506 758.087 608.79 760.5 615.543L754.692 618.056L753.751 618.347C750.284 616.332 723.899 538.696 720.388 528.354L726.161 526.504Z"/><path fill="#23364C" transform="scale(0.5 0.5)" d="M629.424 292.337C631.045 293.443 631.157 293.681 631.317 295.448C630.03 298.946 610.55 319.95 607.046 323.957L550.368 389.223L523.981 419.492C521.007 422.897 513.193 432.271 510.147 434.602C508.487 433.558 508.057 433.502 507.697 431.977C509.49 427.801 524.042 412.25 527.939 407.809C561.776 369.237 594.419 329.877 629.424 292.337Z"/><path fill="#23364C" transform="scale(0.5 0.5)" d="M723.298 580.045C727.874 580.086 732.842 581.954 733.317 586.933C734.257 596.793 721.585 597.744 715.794 605.47L715.349 606.074C718.043 607.362 719.78 607.943 722.565 608.875C728.74 606.715 745.717 600.168 741.149 616.015C740.17 619.41 736.032 621.091 732.874 622.268C719.371 628.308 713.263 628.404 720.961 612.225C716.396 611.705 714.306 611.077 710.263 608.907C711.223 604.765 712.403 602.686 714.409 599.064C712.043 597.614 705.228 594.164 704.582 592.197C703.005 587.389 720.493 580.807 723.298 580.045ZM721.63 622.226L725.624 620.569C728.659 619.491 736.328 617.381 737.43 614.092C738.787 610.04 735.759 609.808 732.735 610.01C730.377 610.8 728.207 611.478 725.929 612.493C724.023 616.218 723.068 618.314 721.63 622.226Z"/><path fill="#FAFAFA" transform="scale(0.5 0.5)" d="M724.657 584.47C726.391 584.631 726.279 584.668 727.778 585.605C730.646 590.936 722.022 596.785 716.308 594.952L709.598 591.259C714.961 588.597 719.023 586.524 724.657 584.47Z"/><path fill="#23364C" transform="scale(0.5 0.5)" d="M696.813 292.244C698.572 292.512 698.92 292.455 700.331 293.592C701.242 295.386 701.275 296.858 701.367 298.873L705.218 403.996L706.985 441.737C707.214 446.969 707.94 458.499 707.255 463.375C705.801 463.17 705.04 463.224 703.943 462.263C702.207 458.642 698.831 353.08 698.412 342.595C698.069 332.971 697.675 323.348 697.231 313.727C697.008 309.139 696.103 296.392 696.813 292.244Z"/><path fill="#23364C" transform="scale(0.5 0.5)" d="M553.32 782.928C559.7 785.008 597.558 814.453 606.125 820.694C612.724 825.527 619.36 830.308 626.033 835.037C629.593 837.556 635.719 841.622 638.886 844.343C639.582 846.254 639.431 845.527 638.808 847.808C638.324 847.871 638.003 847.94 637.493 847.87C633.757 847.359 558.537 792.572 553.354 786.842C552.687 785.079 552.899 784.743 553.32 782.928Z"/><path fill="#23364C" transform="scale(0.5 0.5)" d="M457.123 244.089C460.106 243.865 472.37 243.727 474.681 243.921C482.535 244.582 536.987 242.552 540.655 245.182C541.343 246.361 541.038 247.146 540.826 248.525C534.358 247.833 522.888 248.21 516.075 248.238L477.265 248.156C471.621 248.149 463.785 248.442 458.345 247.81C457.093 246.495 457.461 246.32 457.123 244.089Z"/><path fill="#23364C" transform="scale(0.5 0.5)" d="M794.363 271.565C799.136 272.566 817.201 292.218 822.012 296.469C827.461 301.282 834.443 308.787 839.693 314.148C840.77 315.248 840.319 317.024 840.186 318.4C829.986 313.9 816.122 296.169 807.209 288.547C802.973 284.925 798.15 279.923 794.317 275.818C793.305 274.734 794.065 272.84 794.363 271.565Z"/><path fill="#23364C" transform="scale(0.5 0.5)" d="M902.801 515.327C904.342 515.913 904.452 515.775 905.346 517.096C905.767 519.802 905.872 522.279 905.938 525.013C906.366 542.856 907.338 560.707 907.514 578.551C907.531 580.196 906.988 581.393 906.26 582.819L904.529 581.901C903.86 581.104 903.593 580.491 903.557 579.443C902.877 559.235 901.604 538.984 901.472 518.771C901.463 517.297 901.923 516.438 902.801 515.327Z"/><path fill="#23364C" transform="scale(0.5 0.5)" d="M871.46 769.772C873.304 770.18 873.556 770.906 873.878 772.534C872.409 777.133 839.668 805.461 834.271 809.994L833.092 809.896C831.801 808.473 832.175 809.298 832.042 807.288C833.078 804.451 845.108 794.492 848.441 791.47C856.195 784.324 863.869 777.091 871.46 769.772Z"/></svg>